<svg width="20" height="20" viewBox="0 0 20 20" fill="none" xmlns="http://www.w3.org/2000/svg">
<rect width="20" height="20" rx="10" fill="#D1FADF"/>
<path d="M15.9228 5.83301H7.89378C7.57541 5.83301 7.57497 6.34646 7.89378 6.34646H15.9228C16.0595 6.34646 16.1707 6.46163 16.1707 6.60319V12.6701C16.1707 12.8117 16.0595 12.9269 15.9228 12.9269H11.5813C11.5054 12.9269 11.4337 12.9628 11.3867 13.0245L10.3865 14.3365L9.32578 13.0192C9.27867 12.9607 9.20889 12.9269 9.13532 12.9269H4.91048C4.77376 12.9269 4.66253 12.8117 4.66253 12.6701V6.60319C4.66253 6.46163 4.77376 6.34646 4.91048 6.34646H5.85398C6.17235 6.34646 6.1728 5.83301 5.85398 5.83301H4.91048C4.50032 5.83301 4.16663 6.17851 4.16663 6.60319V12.6701C4.16663 13.0948 4.50032 13.4403 4.91048 13.4403H9.01926L10.2014 14.9083C10.3012 15.0323 10.4898 15.0297 10.5865 14.9029L11.7015 13.4403H15.9228C16.3329 13.4403 16.6666 13.0948 16.6666 12.6701V6.60319C16.6666 6.17851 16.3329 5.83301 15.9228 5.83301Z" fill="#027A48"/>
<path d="M5.53949 9.13708C5.51323 9.22072 5.53016 9.31245 5.58437 9.38017L6.06715 9.98367L6.01917 10.7658C5.98149 11.3784 6.8699 10.7278 7.06156 10.7317C7.25489 10.7358 8.14122 11.3715 8.10395 10.7658L8.05595 9.98367L8.53876 9.38017C8.65153 9.23926 8.5816 9.01336 8.4093 8.96772L7.67613 8.77332L7.27098 8.11142C7.17639 7.95682 6.94731 7.95587 6.85212 8.11142L6.44697 8.77332L5.7138 8.96772C5.6315 8.98951 5.56575 9.05341 5.53949 9.13708ZM6.66526 9.24542C6.84857 9.19685 6.96923 8.8792 7.06154 8.72837C7.15236 8.87676 7.27626 9.19731 7.45781 9.24542L7.90725 9.36459L7.61127 9.73454C7.57098 9.78491 7.55077 9.84932 7.55479 9.91458L7.58422 10.394L7.15296 10.2169C7.09422 10.1928 7.02883 10.1928 6.97009 10.2169L6.53883 10.394L6.56824 9.91458C6.57226 9.84932 6.55205 9.78491 6.51175 9.73454L6.2158 9.36459L6.66526 9.24542Z" fill="#027A48"/>
<path d="M11.9137 9.13711C11.8874 9.05346 11.8217 8.98954 11.7394 8.96772L11.0062 8.77332L10.601 8.11142C10.5065 7.95682 10.2774 7.95587 10.1822 8.11142L9.77703 8.77332L9.04387 8.96772C8.96157 8.98954 8.89579 9.05346 8.86955 9.13711C8.84332 9.22075 8.86023 9.31248 8.91443 9.3802L9.39725 9.98369L9.34924 10.7658C9.31153 11.3784 10.2 10.7278 10.3916 10.7318C10.585 10.7358 11.4713 11.3715 11.434 10.7658L11.386 9.98369L11.8688 9.3802C11.923 9.31248 11.9399 9.22075 11.9137 9.13711ZM10.9414 9.73456C10.9011 9.78493 10.8809 9.84935 10.8849 9.91461L10.9143 10.394C10.7595 10.3305 10.5617 10.1988 10.3916 10.1988C10.2223 10.1988 10.0234 10.3306 9.86895 10.394L9.89838 9.91461C9.9024 9.84935 9.88219 9.78493 9.8419 9.73456L9.54592 9.36462L9.99535 9.24544C10.1787 9.19687 10.2993 8.87922 10.3916 8.72839C10.4825 8.87678 10.6064 9.19733 10.7879 9.24544L11.2373 9.36462L10.9414 9.73456Z" fill="#027A48"/>
<path d="M15.2441 9.13711C15.2179 9.05344 15.1521 8.98954 15.0698 8.96772L14.3367 8.77332L13.9315 8.11142C13.8369 7.95682 13.6078 7.95587 13.5126 8.11142L13.1075 8.77332L12.3743 8.96772C12.2031 9.01311 12.1314 9.23838 12.2449 9.38018L12.7277 9.98367L12.6797 10.7658C12.642 11.3783 13.53 10.7278 13.7221 10.7317C13.915 10.7357 14.8017 11.3717 14.7644 10.7658L14.7165 9.98367L15.1993 9.38018C15.2535 9.31248 15.2704 9.22075 15.2441 9.13711ZM14.2718 9.73456C14.2315 9.78493 14.2113 9.84935 14.2154 9.91461L14.2448 10.394L13.8135 10.2169C13.7526 10.1928 13.6916 10.1928 13.6306 10.2169L13.1994 10.394L13.2288 9.91461C13.2328 9.84935 13.2126 9.78493 13.1723 9.73456L12.8763 9.36462L13.3258 9.24544C13.5091 9.19687 13.6297 8.87922 13.7221 8.72839C13.8129 8.87678 13.9368 9.19733 14.1183 9.24544L14.5678 9.36462L14.2718 9.73456Z" fill="#027A48"/>
<path d="M6.74143 6.30292C6.92807 6.43534 7.17723 6.24292 7.1177 6.02121C7.08936 5.91564 6.99695 5.83875 6.8911 5.83331C6.78549 5.82789 6.68567 5.89534 6.64773 5.99736C6.60687 6.10734 6.64558 6.23804 6.74143 6.30292Z" fill="#027A48"/>
</svg>
