<svg width="20" height="20" viewBox="0 0 20 20" fill="none" xmlns="http://www.w3.org/2000/svg">
<path d="M0 10C0 4.47715 4.47715 0 10 0V0C15.5228 0 20 4.47715 20 10V10C20 15.5228 15.5228 20 10 20V20C4.47715 20 0 15.5228 0 10V10Z" fill="#D1FADF"/>
<path fill-rule="evenodd" clip-rule="evenodd" d="M14.247 6.15838L8.2803 11.9167L6.69696 10.2251C6.4053 9.95005 5.94696 9.93339 5.61363 10.1667C5.28863 10.4084 5.19696 10.8334 5.39696 11.1751L7.27196 14.2251C7.4553 14.5084 7.77196 14.6834 8.1303 14.6834C8.47196 14.6834 8.79696 14.5084 8.9803 14.2251C9.2803 13.8334 15.0053 7.00838 15.0053 7.00838C15.7553 6.24172 14.847 5.56672 14.247 6.15005V6.15838Z" fill="#027A48"/>
</svg>
