<svg width="20" height="20" viewBox="0 0 20 20" fill="none" xmlns="http://www.w3.org/2000/svg">
<rect width="20" height="20" rx="10" fill="#D1FADF"/>
<path d="M13.1805 12.7148H11.1537C10.9629 12.7148 10.8082 12.8788 10.8082 13.0811C10.8082 13.2833 10.9629 13.4473 11.1537 13.4473H13.1805C13.3713 13.4473 13.526 13.2833 13.526 13.0811C13.526 12.8788 13.3713 12.7148 13.1805 12.7148Z" fill="#027A48"/>
<path d="M13.1805 9.85352H11.1537C10.9629 9.85352 10.8082 10.0175 10.8082 10.2197C10.8082 10.422 10.9629 10.5859 11.1537 10.5859H13.1805C13.3713 10.5859 13.526 10.422 13.526 10.2197C13.526 10.0175 13.3713 9.85352 13.1805 9.85352Z" fill="#027A48"/>
<path d="M9.16414 9.35465C9.01768 9.22504 8.79983 9.24577 8.67753 9.40101L8.09415 10.1415L7.96179 9.86151C7.87632 9.68068 7.66876 9.60753 7.49816 9.69816C7.32756 9.78876 7.25858 10.0088 7.34405 10.1896L7.71256 10.9693C7.76473 11.0796 7.86586 11.1547 7.98158 11.169C7.99493 11.1706 8.00822 11.1714 8.02149 11.1714C8.12317 11.1714 8.22058 11.1238 8.28663 11.04L9.2079 9.87052C9.33016 9.71525 9.31058 9.48429 9.16414 9.35465V9.35465Z" fill="#027A48"/>
<path d="M8.77497 12.0702C8.61968 11.9527 8.40395 11.9908 8.29302 12.1553L8.11351 12.4217L7.934 12.1553C7.82311 11.9908 7.60732 11.9526 7.45206 12.0702C7.29681 12.1877 7.26085 12.4165 7.37175 12.5811L7.68895 13.0518L7.37175 13.5225C7.26085 13.6871 7.29681 13.9158 7.45206 14.0334C7.51294 14.0795 7.58307 14.1016 7.65258 14.1016C7.76037 14.1016 7.86657 14.0483 7.934 13.9482L8.11351 13.6819L8.29302 13.9483C8.36046 14.0483 8.46666 14.1016 8.57445 14.1016C8.64394 14.1016 8.71409 14.0795 8.77497 14.0334C8.93022 13.9158 8.96618 13.6871 8.85528 13.5225L8.53808 13.0518L8.85528 12.5811C8.96618 12.4165 8.93022 12.1878 8.77497 12.0702V12.0702Z" fill="#027A48"/>
<path d="M13.7103 5.42305V5.26562C13.7103 4.65984 13.2453 4.16699 12.6738 4.16699H8.15959C7.5881 4.16699 7.12316 4.65984 7.12316 5.26562V5.42305C6.3787 5.62969 5.83337 6.35071 5.83337 7.19434V14.8359C5.83337 15.8456 6.60828 16.667 7.56076 16.667H13.2727C14.2251 16.667 15 15.8456 15 14.8359V7.19434C15 6.35071 14.4547 5.62969 13.7103 5.42305V5.42305ZM7.81411 5.26562C7.81411 5.0637 7.96909 4.89941 8.15959 4.89941H12.6738C12.8643 4.89941 13.0193 5.0637 13.0193 5.26562V6.16895C13.0193 6.37087 12.8643 6.53516 12.6738 6.53516H8.15959C7.96909 6.53516 7.81411 6.37087 7.81411 6.16895V5.26562ZM14.3091 14.8359C14.3091 15.4417 13.8441 15.9346 13.2727 15.9346H7.56076C6.98927 15.9346 6.52433 15.4417 6.52433 14.8359V7.19434C6.52433 6.75657 6.769 6.374 7.12387 6.19836C7.13866 6.79058 7.5974 7.26758 8.15959 7.26758H12.6738C13.236 7.26758 13.6948 6.79058 13.7095 6.19836C14.0644 6.374 14.3091 6.75657 14.3091 7.19434V14.8359Z" fill="#027A48"/>
</svg>
