<svg width="20" height="20" viewBox="0 0 20 20" fill="none" xmlns="http://www.w3.org/2000/svg">
<rect width="20" height="20" rx="10" fill="#D1E9FF"/>
<path d="M15.9229 5.83301H7.8939C7.57553 5.83301 7.57509 6.34646 7.8939 6.34646H15.9229C16.0596 6.34646 16.1708 6.46163 16.1708 6.60319V12.6701C16.1708 12.8117 16.0596 12.9269 15.9229 12.9269H11.5814C11.5055 12.9269 11.4338 12.9628 11.3868 13.0245L10.3867 14.3365L9.3259 13.0192C9.27879 12.9607 9.20901 12.9269 9.13545 12.9269H4.9106C4.77388 12.9269 4.66265 12.8117 4.66265 12.6701V6.60319C4.66265 6.46163 4.77388 6.34646 4.9106 6.34646H5.85411C6.17248 6.34646 6.17292 5.83301 5.85411 5.83301H4.9106C4.50044 5.83301 4.16675 6.17851 4.16675 6.60319V12.6701C4.16675 13.0948 4.50044 13.4403 4.9106 13.4403H9.01938L10.2015 14.9083C10.3013 15.0323 10.49 15.0297 10.5866 14.9029L11.7016 13.4403H15.9229C16.3331 13.4403 16.6667 13.0948 16.6667 12.6701V6.60319C16.6667 6.17851 16.3331 5.83301 15.9229 5.83301Z" fill="#1570EF"/>
<path d="M5.53949 9.13708C5.51323 9.22072 5.53016 9.31245 5.58437 9.38017L6.06715 9.98367L6.01917 10.7658C5.98149 11.3784 6.8699 10.7278 7.06156 10.7317C7.25489 10.7358 8.14122 11.3715 8.10395 10.7658L8.05595 9.98367L8.53876 9.38017C8.65153 9.23926 8.5816 9.01336 8.4093 8.96772L7.67613 8.77332L7.27098 8.11142C7.17639 7.95682 6.94731 7.95587 6.85212 8.11142L6.44697 8.77332L5.7138 8.96772C5.6315 8.98951 5.56575 9.05341 5.53949 9.13708ZM6.66526 9.24542C6.84857 9.19685 6.96923 8.8792 7.06154 8.72837C7.15236 8.87676 7.27626 9.19731 7.45781 9.24542L7.90725 9.36459L7.61127 9.73454C7.57098 9.78491 7.55077 9.84932 7.55479 9.91458L7.58422 10.394L7.15296 10.2169C7.09422 10.1928 7.02883 10.1928 6.97009 10.2169L6.53883 10.394L6.56824 9.91458C6.57226 9.84932 6.55205 9.78491 6.51175 9.73454L6.2158 9.36459L6.66526 9.24542Z" fill="#1570EF"/>
<path d="M11.9137 9.13711C11.8874 9.05346 11.8217 8.98954 11.7394 8.96772L11.0062 8.77332L10.601 8.11142C10.5065 7.95682 10.2774 7.95587 10.1822 8.11142L9.77703 8.77332L9.04387 8.96772C8.96157 8.98954 8.89579 9.05346 8.86955 9.13711C8.84332 9.22075 8.86023 9.31248 8.91443 9.3802L9.39725 9.98369L9.34924 10.7658C9.31153 11.3784 10.2 10.7278 10.3916 10.7318C10.585 10.7358 11.4713 11.3715 11.434 10.7658L11.386 9.98369L11.8688 9.3802C11.923 9.31248 11.9399 9.22075 11.9137 9.13711ZM10.9414 9.73456C10.9011 9.78493 10.8809 9.84935 10.8849 9.91461L10.9143 10.394C10.7595 10.3305 10.5617 10.1988 10.3916 10.1988C10.2223 10.1988 10.0234 10.3306 9.86895 10.394L9.89838 9.91461C9.9024 9.84935 9.88219 9.78493 9.8419 9.73456L9.54592 9.36462L9.99535 9.24544C10.1787 9.19687 10.2993 8.87922 10.3916 8.72839C10.4825 8.87678 10.6064 9.19733 10.7879 9.24544L11.2373 9.36462L10.9414 9.73456Z" fill="#1570EF"/>
<path d="M15.2441 9.13711C15.2179 9.05344 15.1521 8.98954 15.0698 8.96772L14.3367 8.77332L13.9315 8.11142C13.8369 7.95682 13.6078 7.95587 13.5126 8.11142L13.1075 8.77332L12.3743 8.96772C12.2031 9.01311 12.1314 9.23838 12.2449 9.38018L12.7277 9.98367L12.6797 10.7658C12.642 11.3783 13.53 10.7278 13.7221 10.7317C13.915 10.7357 14.8017 11.3717 14.7644 10.7658L14.7165 9.98367L15.1993 9.38018C15.2535 9.31248 15.2704 9.22075 15.2441 9.13711ZM14.2718 9.73456C14.2315 9.78493 14.2113 9.84935 14.2154 9.91461L14.2448 10.394L13.8135 10.2169C13.7526 10.1928 13.6916 10.1928 13.6306 10.2169L13.1994 10.394L13.2288 9.91461C13.2328 9.84935 13.2126 9.78493 13.1723 9.73456L12.8763 9.36462L13.3258 9.24544C13.5091 9.19687 13.6297 8.87922 13.7221 8.72839C13.8129 8.87678 13.9368 9.19733 14.1183 9.24544L14.5678 9.36462L14.2718 9.73456Z" fill="#1570EF"/>
<path d="M6.74168 6.30292C6.92831 6.43534 7.17748 6.24292 7.11794 6.02121C7.0896 5.91564 6.99719 5.83875 6.89134 5.83331C6.78574 5.82789 6.68591 5.89534 6.64798 5.99736C6.60711 6.10734 6.64582 6.23804 6.74168 6.30292Z" fill="#1570EF"/>
</svg>
