<svg width="22" height="22" viewBox="0 0 22 22" fill="none" xmlns="http://www.w3.org/2000/svg">
<rect width="22" height="22" rx="11" fill="#D1E9FF"/>
<path d="M12.9616 6.2207H5.72974C5.05115 6.2207 4.5 6.77185 4.5 7.45044V17.8267C4.5 18.5053 5.05115 19.0565 5.72974 19.0565H12.9616C13.6402 19.0565 14.1913 18.5053 14.1913 17.8267V7.45044C14.1881 6.77185 13.637 6.2207 12.9616 6.2207ZM13.328 17.8235C13.328 18.0274 13.1623 18.1931 12.9584 18.1931H5.72655C5.52266 18.1931 5.35699 18.0274 5.35699 17.8235V7.45044C5.35699 7.24654 5.52266 7.08088 5.72655 7.08088H12.9584C13.1623 7.08088 13.328 7.24654 13.328 7.45044V17.8235Z" fill="#1570EF"/>
<path d="M12.9616 6.2207H5.72974C5.05115 6.2207 4.5 6.77185 4.5 7.45044V17.8267C4.5 18.5053 5.05115 19.0565 5.72974 19.0565H12.9616C13.6402 19.0565 14.1913 18.5053 14.1913 17.8267V7.45044C14.1881 6.77185 13.637 6.2207 12.9616 6.2207ZM13.328 17.8235C13.328 18.0274 13.1623 18.1931 12.9584 18.1931H5.72655C5.52266 18.1931 5.35699 18.0274 5.35699 17.8235V7.45044C5.35699 7.24654 5.52266 7.08088 5.72655 7.08088H12.9584C13.1623 7.08088 13.328 7.24654 13.328 7.45044V17.8235Z" stroke="#1570EF"/>
<path d="M15.727 3.5H8.49512C7.81653 3.5 7.26538 4.05115 7.26538 4.72973C7.26538 4.96867 7.45653 5.15982 7.69547 5.15982C7.93441 5.15982 8.12556 4.96867 8.12556 4.72973C8.12556 4.52584 8.29122 4.36018 8.49512 4.36018H15.727C15.9309 4.36018 16.0965 4.52584 16.0965 4.72973V15.106C16.0965 15.3099 15.9309 15.4756 15.727 15.4756C15.488 15.4756 15.2969 15.6667 15.2969 15.9057C15.2969 16.1446 15.488 16.3358 15.727 16.3358C16.4056 16.3358 16.9567 15.7846 16.9567 15.106V4.72973C16.9567 4.05115 16.4056 3.5 15.727 3.5Z" fill="#1570EF"/>
<path d="M15.727 3.5H8.49512C7.81653 3.5 7.26538 4.05115 7.26538 4.72973C7.26538 4.96867 7.45653 5.15982 7.69547 5.15982C7.93441 5.15982 8.12556 4.96867 8.12556 4.72973C8.12556 4.52584 8.29122 4.36018 8.49512 4.36018H15.727C15.9309 4.36018 16.0965 4.52584 16.0965 4.72973V15.106C16.0965 15.3099 15.9309 15.4756 15.727 15.4756C15.488 15.4756 15.2969 15.6667 15.2969 15.9057C15.2969 16.1446 15.488 16.3358 15.727 16.3358C16.4056 16.3358 16.9567 15.7846 16.9567 15.106V4.72973C16.9567 4.05115 16.4056 3.5 15.727 3.5Z" stroke="#1570EF"/>
</svg>
