<svg width="39" height="39" viewBox="0 0 39 39" fill="none" xmlns="http://www.w3.org/2000/svg">
<path d="M3.03796 19.3548C3.03796 10.2107 10.4508 2.79785 19.5949 2.79785C28.7391 2.79785 36.1519 10.2107 36.1519 19.3548C36.1519 28.499 28.7391 35.9118 19.5949 35.9118C10.4508 35.9118 3.03796 28.499 3.03796 19.3548Z" fill="#D1E9FF"/>
<g clip-path="url(#clip0_642_99192)">
<path d="M22.3544 25.5632V24.1835C22.3544 23.4516 22.0637 22.7497 21.5462 22.2322C21.0287 21.7147 20.3268 21.424 19.595 21.424H14.7658C14.034 21.424 13.3321 21.7147 12.8146 22.2322C12.2971 22.7497 12.0063 23.4516 12.0063 24.1835V25.5632M25.1139 16.5949V20.7341M27.1836 18.6645H23.0443M19.9399 15.905C19.9399 17.429 18.7044 18.6645 17.1804 18.6645C15.6564 18.6645 14.4209 17.429 14.4209 15.905C14.4209 14.381 15.6564 13.1455 17.1804 13.1455C18.7044 13.1455 19.9399 14.381 19.9399 15.905Z" stroke="#1570EF" stroke-width="1.37975" stroke-linecap="round" stroke-linejoin="round"/>
</g>
<path d="M19.5949 33.1523C11.9748 33.1523 5.79746 26.9749 5.79746 19.3548H0.27847C0.27847 30.023 8.92675 38.6713 19.5949 38.6713V33.1523ZM33.3924 19.3548C33.3924 26.9749 27.2151 33.1523 19.5949 33.1523V38.6713C30.2631 38.6713 38.9114 30.023 38.9114 19.3548H33.3924ZM19.5949 5.55735C27.2151 5.55735 33.3924 11.7347 33.3924 19.3548H38.9114C38.9114 8.68663 30.2631 0.038358 19.5949 0.038358V5.55735ZM19.5949 0.038358C8.92675 0.038358 0.27847 8.68663 0.27847 19.3548H5.79746C5.79746 11.7347 11.9748 5.55735 19.5949 5.55735V0.038358Z" fill="#EFF8FF"/>
<defs>
<clipPath id="clip0_642_99192">
<rect width="16.557" height="16.557" fill="white" transform="translate(11.3164 11.0762)"/>
</clipPath>
</defs>
</svg>
