<svg width="13" height="10" viewBox="0 0 13 10" fill="none" xmlns="http://www.w3.org/2000/svg">
<path d="M11.9229 0.833008H3.8939C3.57553 0.833008 3.57509 1.34646 3.8939 1.34646H11.9229C12.0596 1.34646 12.1708 1.46163 12.1708 1.60319V7.67014C12.1708 7.8117 12.0596 7.92687 11.9229 7.92687H7.58144C7.50554 7.92687 7.43383 7.96284 7.3868 8.02453L6.38666 9.33646L5.3259 8.01919C5.27879 7.9607 5.20901 7.92687 5.13545 7.92687H0.910602C0.773882 7.92687 0.662651 7.8117 0.662651 7.67014V1.60319C0.662651 1.46163 0.773882 1.34646 0.910602 1.34646H1.85411C2.17248 1.34646 2.17292 0.833008 1.85411 0.833008H0.910602C0.500441 0.833008 0.166748 1.17851 0.166748 1.60319V7.67014C0.166748 8.09482 0.500441 8.44032 0.910602 8.44032H5.01938L6.20151 9.90829C6.30134 10.0323 6.48996 10.0297 6.58658 9.90293L7.70162 8.44032H11.9229C12.3331 8.44032 12.6667 8.09482 12.6667 7.67014V1.60319C12.6667 1.17851 12.3331 0.833008 11.9229 0.833008V0.833008Z" fill="#1570EF"/>
<path d="M1.53949 4.13708C1.51323 4.22072 1.53016 4.31245 1.58437 4.38017L2.06715 4.98367L2.01917 5.76576C1.98149 6.37844 2.8699 5.72779 3.06156 5.73175C3.25489 5.73575 4.14122 6.37151 4.10395 5.76576L4.05595 4.98367L4.53876 4.38017C4.65153 4.23926 4.5816 4.01336 4.4093 3.96772L3.67613 3.77332L3.27098 3.11142C3.17639 2.95682 2.94731 2.95587 2.85212 3.11142L2.44697 3.77332L1.7138 3.96772C1.6315 3.98951 1.56575 4.05341 1.53949 4.13708V4.13708ZM2.66526 4.24542C2.84857 4.19685 2.96923 3.8792 3.06154 3.72837C3.15236 3.87676 3.27626 4.19731 3.45781 4.24542L3.90725 4.36459L3.61127 4.73454C3.57098 4.78491 3.55077 4.84932 3.55479 4.91458L3.58422 5.39402L3.15296 5.2169C3.09422 5.1928 3.02883 5.1928 2.97009 5.2169L2.53883 5.39402L2.56824 4.91458C2.57225 4.84932 2.55205 4.78491 2.51175 4.73454L2.2158 4.36459L2.66526 4.24542Z" fill="#1570EF"/>
<path d="M7.91368 4.13711C7.88742 4.05346 7.82166 3.98954 7.73937 3.96772L7.0062 3.77332L6.60105 3.11142C6.50646 2.95682 6.27737 2.95587 6.18219 3.11142L5.77703 3.77332L5.04387 3.96772C4.96157 3.98954 4.89579 4.05346 4.86955 4.13711C4.84332 4.22075 4.86023 4.31248 4.91443 4.3802L5.39725 4.98369L5.34924 5.76579C5.31153 6.37844 6.19999 5.72782 6.39163 5.73177C6.58496 5.73578 7.47128 6.37154 7.43402 5.76579L7.38601 4.98369L7.86883 4.3802C7.923 4.31248 7.93994 4.22075 7.91368 4.13711V4.13711ZM6.94136 4.73456C6.90107 4.78493 6.88086 4.84935 6.88488 4.91461L6.91431 5.39405C6.75947 5.33045 6.56175 5.19883 6.39163 5.19883C6.2223 5.19883 6.02337 5.33061 5.86895 5.39405L5.89838 4.91461C5.9024 4.84935 5.88219 4.78493 5.8419 4.73456L5.54592 4.36462L5.99535 4.24544C6.17866 4.19687 6.29932 3.87922 6.39163 3.72839C6.48245 3.87678 6.60636 4.19733 6.78791 4.24544L7.23734 4.36462L6.94136 4.73456Z" fill="#1570EF"/>
<path d="M11.2441 4.13711C11.2179 4.05344 11.1521 3.98954 11.0698 3.96772L10.3367 3.77332L9.9315 3.11142C9.83691 2.95682 9.60782 2.95587 9.51264 3.11142L9.10748 3.77332L8.37432 3.96772C8.20308 4.01311 8.1314 4.23838 8.24486 4.38018L8.72767 4.98367L8.67967 5.76576C8.64198 6.37834 9.52997 5.72777 9.72206 5.73175C9.91501 5.73573 10.8017 6.37167 10.7644 5.76576L10.7165 4.98367L11.1993 4.38018C11.2535 4.31248 11.2704 4.22075 11.2441 4.13711V4.13711ZM10.2718 4.73456C10.2315 4.78493 10.2113 4.84935 10.2154 4.91461L10.2448 5.39405L9.8135 5.21693C9.75255 5.19282 9.69158 5.19282 9.63064 5.21693L9.19937 5.39405L9.22881 4.91461C9.23282 4.84935 9.21261 4.78493 9.17232 4.73456L8.87634 4.36462L9.32578 4.24544C9.50909 4.19687 9.62974 3.87922 9.72206 3.72839C9.81288 3.87678 9.93678 4.19733 10.1183 4.24544L10.5678 4.36462L10.2718 4.73456Z" fill="#1570EF"/>
<path d="M2.74168 1.30292C2.92831 1.43534 3.17748 1.24292 3.11794 1.02121C3.0896 0.915645 2.99719 0.838754 2.89134 0.833312C2.78574 0.827895 2.68591 0.895337 2.64798 0.997361C2.60711 1.10734 2.64582 1.23804 2.74168 1.30292Z" fill="#1570EF"/>
</svg>
