<svg width="334" height="339" viewBox="0 0 334 339" fill="none" xmlns="http://www.w3.org/2000/svg">
<path d="M114.532 225.639C177.786 225.639 229.064 176.229 229.064 115.278C229.064 54.3274 177.786 4.91699 114.532 4.91699C51.2776 4.91699 0 54.3274 0 115.278C0 176.229 51.2776 225.639 114.532 225.639Z" fill="#ECF3FE"/>
<path d="M281.639 172.092C310.006 172.092 333.002 149.934 333.002 122.6C333.002 95.2659 310.006 73.1074 281.639 73.1074C253.272 73.1074 230.276 95.2659 230.276 122.6C230.276 149.934 253.272 172.092 281.639 172.092Z" fill="#ECF3FE"/>
<path d="M221.828 301.911C252.479 301.911 277.326 277.969 277.326 248.434C277.326 218.899 252.479 194.957 221.828 194.957C191.178 194.957 166.331 218.899 166.331 248.434C166.331 277.969 191.178 301.911 221.828 301.911Z" fill="#ECF3FE"/>
<path d="M272.834 338.709C301.451 338.709 324.649 335.591 324.649 331.745C324.649 327.899 301.451 324.781 272.834 324.781C244.217 324.781 221.018 327.899 221.018 331.745C221.018 335.591 244.217 338.709 272.834 338.709Z" fill="#B7CAE5"/>
<path d="M276.121 180.718C275.56 205.986 266.3 229.241 251.251 247.598C245.357 254.788 238.586 261.212 231.097 266.719C213.558 279.617 192.106 287.453 168.961 287.999C156.121 288.311 143.325 286.363 131.159 282.242L77.4565 303.801C72.6802 305.717 67.7226 301.484 68.8825 296.473C71.8524 283.663 76.6345 262.898 80.2813 246.406C64.6558 226.714 55.6106 201.556 56.5811 174.243C58.6038 116.98 105.233 70.4072 162.499 68.4604C225.734 66.3149 277.52 117.645 276.121 180.718Z" fill="#3B82F4"/>
<path d="M284.168 177.419C283.606 202.687 274.352 225.941 259.297 244.298C253.403 251.488 246.633 257.912 239.144 263.421C221.606 276.318 200.153 284.154 177.008 284.701C164.167 285.013 151.372 283.064 139.207 278.944L85.503 300.508C80.7267 302.424 75.7691 298.19 76.929 293.179C79.8988 280.37 84.681 259.605 88.3278 243.114C72.7022 223.421 63.6571 198.262 64.6276 170.95C66.6503 113.687 113.279 67.1147 170.546 65.1667C233.781 63.0165 285.566 114.346 284.168 177.419Z" fill="#3B82F4"/>
<g style="mix-blend-mode:multiply" opacity="0.15">
<path d="M259.296 244.305C253.402 251.494 246.632 257.919 239.143 263.427L232.922 249.469L259.296 244.305Z" fill="#232323"/>
</g>
<path d="M240.373 211.885C241.345 215.627 245.617 226.18 245.31 230.507C245.31 230.558 245.303 230.608 245.297 230.657C244.874 234.884 249.305 227.383 249.305 227.383L243.819 207.652C243.231 207.729 242.658 207.893 242.12 208.141C240.992 208.674 239.815 209.748 240.373 211.885Z" fill="#FDC8AA"/>
<path d="M240.373 211.884C241.345 215.625 245.617 226.179 245.31 230.506C245.754 230.684 246.143 230.623 246.115 229.81C246.052 227.974 241.368 212.911 240.988 211.28C240.69 209.994 241.683 208.658 242.12 208.146C240.992 208.673 239.815 209.746 240.373 211.884Z" fill="#FFD6BB"/>
<path d="M287.749 245.452L293.579 247.567C293.579 247.567 296.654 243.866 299.747 239.985C302.471 236.562 305.203 233.001 305.848 231.71C306.494 230.42 306.521 229.294 306.363 228.469C306.271 227.942 306.072 227.438 305.778 226.99C305.778 226.99 305.389 227.167 304.805 227.426C303.87 227.843 302.431 228.473 301.32 228.917C300.958 229.061 300.63 229.187 300.367 229.278C300.226 229.328 300.104 229.365 300.003 229.395C299.862 229.435 299.592 229.676 299.224 230.071C298.362 231 296.968 232.779 295.443 234.809C291.937 239.471 287.749 245.452 287.749 245.452Z" fill="#FDC8AA"/>
<path d="M295.449 234.81L295.967 235.128L301.325 228.919C300.963 229.063 300.635 229.189 300.372 229.28C300.231 229.329 300.109 229.367 300.009 229.397C299.867 229.437 299.597 229.678 299.229 230.073C298.367 231 296.973 232.78 295.449 234.81Z" fill="#FFD6BB"/>
<path d="M299.224 240.063L299.745 239.985C302.468 236.562 305.2 233.001 305.846 231.71C306.491 230.42 306.518 229.294 306.36 228.469C306.268 227.942 306.069 227.438 305.776 226.99C305.776 226.99 305.386 227.167 304.803 227.426C305.052 227.813 305.789 229.094 305.387 230.07C304.919 231.233 299.224 240.063 299.224 240.063Z" fill="#FBB188"/>
<path d="M260.759 273.082C260.759 273.082 260.504 274.586 264.491 277.482C268.479 280.378 288.202 287.735 290.244 285.931C292.285 284.127 285.591 277.15 284.358 276.577C283.124 276.004 260.759 273.082 260.759 273.082Z" fill="#E59D29"/>
<path d="M293.04 283.555C293.04 283.555 293.01 283.889 292.955 284.459C292.955 284.459 292.955 284.468 292.955 284.474C292.955 284.48 292.955 284.5 292.955 284.511C292.879 285.33 292.76 286.616 292.623 288.089C292.556 288.806 292.485 289.567 292.414 290.343C292.063 294.085 291.684 298.156 291.595 299.056C291.447 300.569 291.934 318.399 292.071 323.259V323.27C292.092 324.033 292.105 324.472 292.105 324.472H288.006C288.006 324.472 283.992 298.848 283.992 298.592C283.992 298.419 282.735 290.252 281.909 284.894L281.595 282.863C281.587 282.813 281.58 282.764 281.571 282.715C281.539 282.502 281.507 282.3 281.478 282.111C281.469 282.05 281.459 281.994 281.45 281.933C281.45 281.912 281.444 281.892 281.441 281.871C281.441 281.83 281.428 281.792 281.422 281.754C281.412 281.697 281.404 281.637 281.396 281.586C281.388 281.534 281.38 281.478 281.372 281.427L281.201 280.318L282.604 280.702L291.398 283.113L293.04 283.555Z" fill="#FDC8AA"/>
<path d="M292.06 323.254C291.923 318.398 291.436 300.571 291.584 299.051C291.69 297.965 292.224 292.259 292.611 288.084C292.747 286.61 292.867 285.328 292.943 284.506L291.113 284.843L290.215 298.766L292.06 323.254Z" fill="#FFD6BB"/>
<path d="M281.426 281.857C281.549 282.649 281.712 283.695 281.893 284.88C282.719 290.238 283.976 298.406 283.976 298.579C283.976 298.835 287.99 324.458 287.99 324.458L283.64 282.81L281.426 281.857Z" fill="#FBB188"/>
<path opacity="0.5" d="M292.95 284.449C292.95 284.449 292.95 284.458 292.95 284.464C292.95 284.47 292.95 284.49 292.95 284.502C292.874 285.32 292.754 286.606 292.618 288.079C292.551 288.796 292.48 289.557 292.408 290.334C288.433 288.742 283.155 285.841 281.905 284.879L281.591 282.848C281.582 282.799 281.575 282.75 281.567 282.701C281.535 282.488 281.503 282.286 281.474 282.096C281.464 282.036 281.455 281.98 281.446 281.919C281.446 281.898 281.44 281.878 281.436 281.857C281.436 281.816 281.425 281.776 281.418 281.74C281.408 281.683 281.4 281.623 281.392 281.571C281.384 281.52 281.375 281.464 281.367 281.412C281.495 281.122 281.593 280.906 281.626 280.856C281.658 280.806 282.036 280.752 282.6 280.688L291.393 283.098L292.95 284.449Z" fill="#E2906D"/>
<path d="M262.214 289.697C262.982 296.018 266.398 324.891 266.398 324.891H270.754C270.754 324.891 270.763 324.712 270.781 324.387C270.955 321.17 271.928 303.557 272.549 300.378C273.233 296.87 271.523 288.847 271.779 287.48C271.896 286.872 272.566 284.86 273.278 282.815C273.931 280.933 274.616 279.021 274.931 278.147L275.11 277.658L263.968 273.547L263.391 273.334H263.383L263.067 273.217C263.067 273.217 263.067 273.226 263.067 273.244C263.059 273.302 263.035 273.461 262.998 273.703C262.943 274.082 262.86 274.671 262.764 275.414C262.331 278.751 261.667 285.199 262.214 289.697Z" fill="#FDC8AA"/>
<path d="M262.214 289.693C262.982 296.014 266.399 324.887 266.399 324.887H266.597L263.215 286.212C263.215 286.212 264.735 275.029 264.798 274.776L263.968 273.542L263.659 273.082L263.391 273.329L262.994 273.696C262.686 275.795 261.545 284.197 262.214 289.693Z" fill="#FFD6BB"/>
<path d="M271.241 299.054L270.773 324.387C270.947 321.171 271.92 303.558 272.541 300.379C273.225 296.871 271.516 288.848 271.772 287.481C271.889 286.873 272.558 284.861 273.271 282.816C273.923 280.933 274.608 279.021 274.924 278.148L272.827 277.25L270.549 287.756L271.241 299.054Z" fill="#FBB188"/>
<path opacity="0.5" d="M262.75 275.413L273.273 282.816C274.157 280.264 275.105 277.659 275.105 277.659L263.962 273.548L263.386 273.335H263.377L263.057 273.246C263.049 273.305 263.024 273.464 262.988 273.706C262.928 274.081 262.843 274.67 262.75 275.413Z" fill="#E2906D"/>
<path opacity="0.5" d="M299.224 230.07C299.224 230.07 304.837 228.834 306.357 228.469C306.265 227.942 306.066 227.438 305.772 226.99C305.772 226.99 301.941 228.731 300.361 229.278C299.678 229.751 299.224 230.07 299.224 230.07Z" fill="#E2906D"/>
<path d="M260.839 272.622C259.643 275.098 271.517 277.405 275.571 279.709C276.772 280.393 278.672 281.58 280.811 282.78C285.898 285.622 292.331 288.488 293.893 284.578C295.134 281.483 294.432 275.038 293.571 266.699C293.071 261.876 292.518 256.417 292.255 250.605V250.58C292.186 249.104 292.138 247.601 292.116 246.082C292.104 245.386 292.099 244.684 292.099 243.978C292.099 243.795 291.851 239.396 291.857 234.528C291.857 228.719 292.228 222.243 293.808 221.455C293.808 221.455 299.478 229.048 299.221 230.073C299.221 230.073 306.148 227.682 306.019 227.17C305.922 226.781 300.865 215.762 297.016 209.619C295.79 207.664 294.678 206.201 293.898 205.736C293.689 205.613 293.467 205.483 293.232 205.352C289.805 203.431 283.569 200.76 275.576 201.681C275.576 201.681 266.863 200.772 265.421 202.759C263.98 204.746 256.678 215.218 256.549 218.293C256.421 221.368 267.846 236.401 268.017 243.15C268.126 247.425 265.697 257.114 263.599 264.272C263.238 265.501 262.889 266.653 262.563 267.692C261.785 270.16 261.148 271.983 260.839 272.622Z" fill="#F4B545"/>
<path d="M279.305 203.302C285.55 202.887 285.069 196.929 285.069 196.929L284.71 190.966L284.671 190.98L276.933 193.592C276.927 194.99 276.704 196.379 276.272 197.709C275.765 199.209 274.869 200.727 273.281 201.504C273.281 201.51 273.058 203.721 279.305 203.302Z" fill="#FDC8AA"/>
<path d="M276.255 197.714C284.161 197.376 284.693 193.657 284.693 193.657C284.693 193.657 284.657 192.167 284.654 190.985L276.916 193.597C276.91 194.996 276.687 196.384 276.255 197.714Z" fill="#FBB188"/>
<path d="M288.244 207.091C288.545 207.349 291.548 211.129 297.001 209.62C295.775 207.665 294.663 206.202 293.883 205.737C293.674 205.614 293.452 205.484 293.217 205.353C290.735 205.03 288.545 204.903 288.528 204.954C288.481 205.097 288.244 207.091 288.244 207.091Z" fill="#E59D29"/>
<path d="M271.991 181.398C271.991 181.398 270.928 173.667 277.376 173.283C283.825 172.898 284.552 170.55 289.335 174.522C294.119 178.494 293.179 179.391 293.222 181.227C293.265 183.062 295.101 191.048 296.682 196.858C298.262 202.668 298.047 210.655 291.086 207.065C284.124 203.476 283.1 203.264 281.818 203.777C280.537 204.291 283.997 188.787 283.997 188.787L284.04 181.953L282.031 179.775L277.675 179.518L273.403 180.97L271.991 181.398Z" fill="#1F3A6F"/>
<path d="M279.274 194.971C279.391 194.977 279.508 194.979 279.625 194.971C283.218 194.911 286.229 191.442 286.425 187.036C286.627 182.487 283.754 178.666 280.008 178.501C278.152 178.417 276.427 179.248 275.136 180.662C273.825 182.1 272.961 184.139 272.858 186.431C272.655 190.981 275.528 194.803 279.274 194.971Z" fill="#FDC8AA"/>
<path d="M257.622 330.478C257.694 331.343 258.347 331.665 259.351 331.685C260.483 331.706 271.481 332.133 271.694 331.278C271.742 331.063 271.779 330.845 271.803 330.626C272.037 328.846 272.233 324.532 270.243 324.465C267.915 324.389 268.538 324.403 268.538 324.403C268.538 324.403 265.994 324.232 266.056 325.105C266.117 325.977 265.822 328.436 262.704 328.542C259.587 328.649 257.707 328.992 257.622 330.123C257.612 330.241 257.612 330.36 257.622 330.478Z" fill="#1F3A6F"/>
<path d="M285.659 331.243C286.162 331.916 294.348 331.781 294.759 331.602C294.929 331.529 294.944 331.039 294.832 330.444C294.673 329.594 294.254 328.53 293.663 328.16C292.656 327.531 292.658 323.737 291.055 323.504C291.055 323.504 289.044 322.79 288.311 323.818C287.578 324.845 287.856 326.858 286.941 327.62C286.412 328.06 285.9 328.976 285.655 329.802C285.48 330.404 285.448 330.961 285.659 331.243Z" fill="#1F3A6F"/>
<path d="M283.861 188.502C283.861 188.406 286.199 186.741 285.654 184.69C285.109 182.639 283.7 184.114 283.54 183.729C283.38 183.344 282.066 180.655 279.088 181.103C276.11 181.551 272.072 184.59 271.945 181.053C271.818 177.516 281.169 177.099 281.97 177.356C282.771 177.612 290.908 180.495 289.336 184.883C287.765 189.271 285.173 196.543 284.532 195.228C284.348 194.853 282.529 195.857 282.697 194.937C283.071 192.902 283.861 188.502 283.861 188.502Z" fill="#1F3A6F"/>
<path d="M292.799 248.002C292.799 248.002 289.352 251.468 286.994 251.348C284.635 251.229 289.982 247.022 290.172 247.117C290.361 247.212 292.799 248.002 292.799 248.002Z" fill="#FDC8AA"/>
<path d="M291.846 234.534C291.846 228.725 292.218 222.249 293.797 221.46C293.797 221.46 291.171 220.993 289.145 230.925C287.972 236.662 289.993 236.196 291.846 234.534Z" fill="#E59D29"/>
<path d="M262.565 267.693C263.753 269.512 265.782 272.643 265.831 272.861C265.903 273.169 267.09 274.546 269.605 274.403C272.12 274.261 272.976 272.03 272.976 271.887C272.976 271.745 279.068 257.631 280.556 254.182C282.044 250.732 284.004 252.409 284.004 252.409C287.746 254.27 290.712 252.155 292.262 250.604V250.579L292.123 246.081L286.077 243.977L278.292 247.57L263.601 264.271C263.241 265.502 262.891 266.654 262.565 267.693Z" fill="#E59D29"/>
<path d="M265.24 212.194L245.858 203.033C243.855 202.086 241.635 203.851 242.103 206.013L246.621 226.969C246.712 227.393 246.699 227.833 246.582 228.25C246.466 228.668 246.25 229.051 245.953 229.366L231.25 244.972C229.73 246.586 230.72 249.24 232.924 249.465L254.251 251.645C254.682 251.688 255.096 251.837 255.457 252.076C255.819 252.316 256.116 252.64 256.324 253.02L266.62 271.825C267.684 273.768 270.515 273.647 271.414 271.621L280.077 252.011C280.252 251.614 280.521 251.267 280.86 250.997C281.2 250.728 281.6 250.545 282.026 250.465L303.091 246.484C305.269 246.072 306.029 243.343 304.377 241.865L288.404 227.566C288.081 227.277 287.833 226.914 287.682 226.507C287.53 226.101 287.48 225.664 287.535 225.234L290.258 203.97C290.54 201.773 288.18 200.206 286.263 201.319L267.729 212.092C267.353 212.31 266.931 212.433 266.497 212.45C266.064 212.468 265.632 212.38 265.24 212.194Z" fill="white"/>
<path d="M285.485 251.392C289.005 251.656 289.017 249.763 289.65 249.562C289.951 249.465 290.001 249.163 289.884 248.882C289.814 248.712 289.695 248.568 289.541 248.468C289.386 248.368 289.205 248.317 289.022 248.324C288.24 248.375 288.101 248.286 288.101 248.286C288.101 248.286 288.593 246.656 287.153 247.262C285.714 247.868 285.222 248.968 282.798 247.87C282.649 247.799 282.492 247.747 282.33 247.714C280.613 247.378 282.219 251.145 285.485 251.392Z" fill="#FDC8AA"/>
<path d="M242.507 207.984C242.507 207.984 244.451 206.37 245.36 206.716C246.27 207.062 243.996 208.319 244.451 209.054C244.905 209.79 246.14 208.902 246.616 209.704C247.092 210.506 244.753 213.625 243.714 213.927C242.675 214.23 242.507 207.984 242.507 207.984Z" fill="#FDC8AA"/>
<path d="M274.996 190.237L279.129 190.432C279.276 190.439 279.363 190.632 279.291 190.792C279.03 191.377 278.337 192.515 276.904 192.488C275.445 192.462 274.945 191.187 274.788 190.562C274.747 190.398 274.854 190.23 274.996 190.237Z" fill="white"/>
<g style="mix-blend-mode:multiply" opacity="0.15">
<path d="M216.049 105.746C209.504 97.5185 206.121 87.2188 206.513 76.7122C207.332 53.6784 226.087 34.9368 249.127 34.1523C274.568 33.2859 295.404 53.938 294.844 79.3137C294.323 102.767 275.183 121.922 251.731 122.479C246.564 122.604 241.416 121.82 236.521 120.163L214.915 128.835C214.481 129.011 214.008 129.063 213.546 128.988C213.084 128.913 212.652 128.712 212.296 128.408C211.94 128.104 211.675 127.709 211.528 127.264C211.382 126.82 211.36 126.343 211.466 125.888C212.656 120.736 214.581 112.381 216.049 105.746Z" fill="#0E50AF"/>
</g>
<path d="M210.959 99.3204C204.414 91.093 201.031 80.7936 201.423 70.2873C202.242 47.2535 220.997 28.5108 244.037 27.7274C269.478 26.8622 290.313 47.5131 289.754 72.8889C289.233 96.3424 270.093 115.498 246.641 116.054C241.475 116.18 236.326 115.396 231.431 113.739L209.825 122.412C209.391 122.586 208.918 122.639 208.456 122.564C207.994 122.488 207.562 122.287 207.206 121.983C206.851 121.679 206.585 121.284 206.439 120.839C206.292 120.395 206.271 119.919 206.376 119.463C207.566 114.31 209.491 105.955 210.959 99.3204Z" fill="#F4B545"/>
<path d="M239.229 59.498H219.93C218.274 59.498 216.932 60.8403 216.932 62.4959V62.4971C216.932 64.1528 218.274 65.495 219.93 65.495H239.229C240.885 65.495 242.227 64.1528 242.227 62.4971V62.4959C242.227 60.8403 240.885 59.498 239.229 59.498Z" fill="#E29D2D"/>
<path d="M231.489 72.1221H212.19C210.534 72.1221 209.192 73.4643 209.192 75.12V75.1211C209.192 76.7768 210.534 78.119 212.19 78.119H231.489C233.145 78.119 234.487 76.7768 234.487 75.1211V75.12C234.487 73.4643 233.145 72.1221 231.489 72.1221Z" fill="#FFDCA4"/>
<path d="M274.892 72.1221H241.464C239.808 72.1221 238.466 73.4643 238.466 75.12V75.1211C238.466 76.7768 239.808 78.119 241.464 78.119H274.892C276.548 78.119 277.89 76.7768 277.89 75.1211V75.12C277.89 73.4643 276.548 72.1221 274.892 72.1221Z" fill="#FFDCA4"/>
<path d="M270.534 83.3926H221.735C220.079 83.3926 218.737 84.7348 218.737 86.3905V86.3917C218.737 88.0473 220.079 89.3896 221.735 89.3896H270.534C272.189 89.3896 273.531 88.0473 273.531 86.3917V86.3905C273.531 84.7348 272.189 83.3926 270.534 83.3926Z" fill="#FFDCA4"/>
<path d="M259.75 100.647H235.961C235.567 100.648 235.177 100.57 234.814 100.42C234.45 100.269 234.119 100.048 233.841 99.7697C233.562 99.4913 233.341 99.1608 233.19 98.797C233.04 98.4332 232.962 98.0433 232.962 97.6495C232.962 96.8541 233.278 96.0912 233.841 95.5288C234.403 94.9664 235.166 94.6504 235.961 94.6504H259.75C260.546 94.6504 261.309 94.9664 261.871 95.5288C262.433 96.0912 262.749 96.8541 262.749 97.6495C262.749 98.0433 262.672 98.4332 262.521 98.797C262.37 99.1608 262.149 99.4913 261.871 99.7697C261.592 100.048 261.262 100.269 260.898 100.42C260.534 100.57 260.144 100.648 259.75 100.647Z" fill="#FFDCA4"/>
<path d="M294.407 41.0715C294.503 44.394 293.941 47.7027 292.754 50.8073C291.566 53.9119 289.776 56.751 287.487 59.1613C285.198 61.5716 282.456 63.5055 279.416 64.8518C276.377 66.1981 273.102 66.9302 269.779 67.006C266.456 67.0817 263.151 66.4997 260.053 65.2933C256.956 64.0869 254.128 62.2799 251.732 59.9765C249.335 57.673 247.418 54.9184 246.09 51.8712C244.762 48.824 244.05 45.5443 243.995 42.2208C243.677 28.3 254.706 16.7574 268.627 16.4393C282.548 16.1213 294.09 27.1506 294.407 41.0715Z" fill="#FFDCA4"/>
<path d="M258.252 29.9012C258.252 29.9012 259.226 25.2418 268.282 25.7726C277.337 26.3034 282.78 30.4495 282.546 40.6545C282.312 50.8596 288.661 54.8537 282.495 55.6207C276.328 56.3877 256.351 59.4943 255.566 56.556C254.782 53.6178 257.086 48.3715 256.215 42.6025C255.344 36.8335 258.252 29.9012 258.252 29.9012Z" fill="#1F3A6F"/>
<path d="M285.563 60.8085C281.388 64.3748 276.163 66.481 270.682 66.8072C265.2 67.1335 259.762 65.6619 255.194 62.6161C255.633 60.8053 256.416 59.0957 257.5 57.5803C258.693 55.9013 260.383 54.2304 262.762 52.7221C262.842 52.6707 262.922 52.6204 263.003 52.5701L263.106 52.507L263.328 52.3725C263.468 52.2895 263.611 52.2053 263.756 52.1235C263.818 52.0872 263.882 52.051 263.946 52.0159C264.011 51.9808 264.049 51.9574 264.102 51.9294C264.393 51.768 264.694 51.609 265.007 51.4523C265.086 51.4126 265.166 51.3717 265.247 51.3354C265.379 51.2699 265.512 51.2056 265.648 51.1413C266.124 50.916 266.62 50.697 267.137 50.4842L270.201 50.4141L270.24 50.4222H270.257C270.283 50.4269 270.32 50.4351 270.366 50.4468L270.404 50.4562L270.584 50.4982L270.631 50.5099L270.779 50.5485L270.825 50.5602L270.929 50.5883C270.959 50.5953 270.991 50.6035 271.021 50.6128H271.035L271.103 50.6304L271.248 50.6713L271.394 50.7122L271.553 50.759L271.748 50.8163L271.887 50.8584C272.039 50.9051 272.2 50.9554 272.368 51.0104L272.491 51.0513L272.608 51.0875L272.654 51.1039C272.798 51.1518 272.947 51.2033 273.1 51.2571L273.438 51.374L273.525 51.4056C274.036 51.5938 274.589 51.8125 275.162 52.0638L275.362 52.1515C275.538 52.2299 275.712 52.3105 275.897 52.3947C277.84 53.2826 279.664 54.4112 281.326 55.7539C282.973 57.1208 284.476 58.7869 285.563 60.8085Z" fill="#3B82F4"/>
<path d="M275.381 52.1726C269.943 57.9112 264.507 53.8984 263.015 52.5795C263.258 52.4287 263.51 52.279 263.768 52.1329C264.859 51.5151 265.988 50.9683 267.15 50.4959L270.213 50.4258C271.342 50.6866 272.453 51.0225 273.538 51.4313C274.109 51.6371 274.73 51.8838 275.381 52.1726Z" fill="#FDC8AA"/>
<path d="M273.546 51.4313C271.977 52.3269 268.123 54.0118 263.776 52.1329C264.866 51.5151 265.996 50.9683 267.157 50.4959L270.22 50.4258C271.35 50.6866 272.461 51.0225 273.546 51.4313Z" fill="#F4A882"/>
<path d="M279.092 40.9144C279.227 46.8015 274.86 51.6713 269.338 51.8011C265.714 51.8841 262.49 49.8976 260.667 46.8576C259.677 45.1966 259.136 43.3063 259.098 41.3728C258.964 35.4857 263.332 30.6159 268.852 30.4849C269.565 30.4685 270.278 30.5328 270.977 30.6767C275.504 31.6074 278.982 35.8026 279.092 40.9144Z" fill="#FDC8AA"/>
<path d="M266.264 46.9299L272.14 46.6165C272.35 46.606 272.499 46.8656 272.421 47.1029C272.135 47.9752 271.318 49.6752 269.286 49.8436C267.217 50.0143 266.329 48.2827 266.012 47.421C265.935 47.1941 266.064 46.9404 266.264 46.9299Z" fill="white"/>
<path d="M274.848 55.1312C272.482 57.5562 269.379 55.0715 269.379 55.0715C272.226 54.916 274.547 52.7904 275.181 52.0771L275.381 52.1648C275.558 52.2428 275.737 52.3239 275.917 52.408C276.176 52.9073 276.176 53.7737 274.848 55.1312Z" fill="white"/>
<path d="M269.375 55.0815C269.375 55.0815 268.074 56.5173 265.049 55.7246C262.804 55.14 262.683 53.5229 262.768 52.7337C262.848 52.6822 262.927 52.632 263.009 52.5817L263.112 52.5186C266.337 55.3118 269.375 55.0815 269.375 55.0815Z" fill="white"/>
<path d="M270.977 30.6746L271.06 34.2992C271.06 34.2992 260.673 35.9992 260.667 46.8579C259.677 45.1968 259.136 43.3065 259.098 41.373C258.964 35.486 263.332 30.6161 268.852 30.4852C269.565 30.468 270.278 30.5315 270.977 30.6746Z" fill="#F4A882"/>
<path d="M259.008 44.8996C259.103 44.6997 261.036 36.4742 264.163 35.6417C267.291 34.8092 272.009 35.4955 272.844 34.3555C273.679 33.2155 273.078 35.6744 276.28 38.318C279.483 40.9617 280.323 39.914 280.323 39.914L278.446 33.0647C278.446 33.0647 272.146 29.8634 271.814 29.8049C271.482 29.7464 268.274 28.5936 267.721 28.8052C267.168 29.0168 263.863 29.6237 263.572 29.8575C263.281 30.0914 260.107 31.8908 260.079 32.0907C260.051 32.2907 259.144 34.6291 259.125 35.2909C259.107 35.9527 257.85 40.3548 258.023 40.6495C258.196 40.9441 259.008 44.8996 259.008 44.8996Z" fill="#1F3A6F"/>
<g style="mix-blend-mode:multiply" opacity="0.15">
<path d="M118.691 134.576C125.237 126.349 128.62 116.049 128.228 105.543C127.409 82.5094 108.654 63.7666 85.614 62.9833C60.1727 62.118 39.3371 82.7689 39.8971 108.145C40.4174 131.598 59.5565 150.754 83.0101 151.31C88.1764 151.436 93.3245 150.652 98.2194 148.995L119.826 157.667C120.26 157.842 120.733 157.895 121.195 157.819C121.657 157.744 122.089 157.543 122.445 157.239C122.8 156.935 123.066 156.539 123.212 156.095C123.359 155.651 123.38 155.174 123.275 154.719C122.082 149.566 120.156 141.21 118.691 134.576Z" fill="#0E50AF"/>
</g>
<path d="M122.301 128.201C128.846 119.974 132.229 109.674 131.837 99.1682C131.018 76.1344 112.263 57.3916 89.2232 56.6083C63.782 55.743 42.9463 76.3951 43.5064 101.77C44.0267 125.224 63.1658 144.379 86.6194 144.936C91.7864 145.062 96.9352 144.278 101.831 142.621L123.437 151.294C123.871 151.469 124.345 151.521 124.807 151.446C125.268 151.37 125.701 151.169 126.056 150.865C126.412 150.561 126.677 150.166 126.824 149.721C126.97 149.277 126.992 148.801 126.886 148.345C125.691 143.191 123.768 134.835 122.301 128.201Z" fill="white"/>
<path d="M94.0489 94.3848H113.348C115.004 94.3848 116.346 93.0426 116.346 91.3869V91.3857C116.346 89.73 115.004 88.3878 113.348 88.3878H94.0489C92.3932 88.3878 91.051 89.73 91.051 91.3857V91.3869C91.051 93.0426 92.3932 94.3848 94.0489 94.3848Z" fill="#3B82F4"/>
<path d="M101.798 107.011H121.091C121.485 107.011 121.874 106.933 122.238 106.782C122.602 106.632 122.933 106.411 123.211 106.132C123.489 105.854 123.71 105.523 123.861 105.159C124.011 104.795 124.089 104.405 124.089 104.012C124.089 103.216 123.773 102.454 123.211 101.892C122.648 101.33 121.886 101.014 121.091 101.014H101.798C101.405 101.014 101.015 101.091 100.651 101.242C100.287 101.392 99.9564 101.613 99.6779 101.891C99.3994 102.17 99.1785 102.5 99.0277 102.864C98.877 103.228 98.7994 103.618 98.7994 104.012C98.7994 104.405 98.877 104.795 99.0277 105.159C99.1784 105.523 99.3994 105.854 99.6778 106.132C99.9563 106.411 100.287 106.632 100.651 106.782C101.015 106.933 101.405 107.011 101.798 107.011Z" fill="#ECF3FE"/>
<path d="M58.401 107.011H91.8292C92.223 107.011 92.6129 106.933 92.9767 106.782C93.3405 106.632 93.6711 106.411 93.9495 106.132C94.2279 105.854 94.4487 105.523 94.5992 105.159C94.7498 104.795 94.8273 104.405 94.8271 104.012C94.8271 103.216 94.5113 102.454 93.949 101.892C93.3868 101.33 92.6243 101.014 91.8292 101.014H58.401C57.6059 101.014 56.8434 101.33 56.2811 101.892C55.7189 102.454 55.4031 103.216 55.4031 104.012C55.4029 104.405 55.4804 104.795 55.6309 105.159C55.7815 105.523 56.0023 105.854 56.2807 106.132C56.5591 106.411 56.8897 106.632 57.2535 106.782C57.6173 106.933 58.0072 107.011 58.401 107.011Z" fill="#ECF3FE"/>
<path d="M62.7221 118.268H111.521C113.177 118.268 114.519 116.925 114.519 115.27V115.269C114.519 113.613 113.177 112.271 111.521 112.271H62.7221C61.0664 112.271 59.7242 113.613 59.7242 115.269V115.27C59.7242 116.925 61.0664 118.268 62.7221 118.268Z" fill="#ECF3FE"/>
<path d="M73.5085 129.538H97.2988C97.6925 129.538 98.0823 129.46 98.4461 129.31C98.8098 129.159 99.1403 128.938 99.4186 128.66C99.697 128.381 99.9178 128.051 100.069 127.687C100.219 127.323 100.297 126.934 100.297 126.54C100.297 126.146 100.219 125.756 100.069 125.393C99.9178 125.029 99.697 124.698 99.4186 124.42C99.1403 124.142 98.8098 123.921 98.4461 123.77C98.0823 123.62 97.6925 123.542 97.2988 123.542H73.5085C72.7134 123.542 71.9509 123.858 71.3887 124.42C70.8265 124.982 70.5106 125.745 70.5106 126.54C70.5106 127.335 70.8265 128.098 71.3887 128.66C71.9509 129.222 72.7134 129.538 73.5085 129.538Z" fill="#ECF3FE"/>
<path d="M91.1326 68.6456C91.2013 75.2997 88.6238 81.7085 83.9672 86.4622C81.6615 88.816 78.9148 90.6926 75.8838 91.9849C72.8529 93.2772 69.5971 93.9598 66.3023 93.9938C59.6482 94.0625 53.2393 91.4851 48.4856 86.8285C43.7319 82.1719 41.0227 75.8176 40.954 69.1635C40.8113 55.3082 51.9284 43.9585 65.7837 43.8158C79.6391 43.6732 90.9888 54.789 91.1326 68.6456Z" fill="#3B82F4"/>
<path d="M80.1246 89.6683C75.9644 92.4889 71.0532 93.9956 66.027 93.9933C61.0008 93.991 56.091 92.4798 51.9333 89.6554C53.0511 86.9311 55.4562 83.7929 60.5213 81.4427C60.588 81.4123 60.6558 81.3808 60.7236 81.3515C60.7914 81.3223 60.8581 81.2907 60.9271 81.2592L61.1819 81.1422L61.4286 81.0382L61.5666 80.9797L61.6146 80.961C61.6225 80.957 61.6307 80.9535 61.6391 80.9505L61.8367 80.8698L62.1524 80.7459C62.4821 80.6173 62.8212 80.4933 63.1708 80.3717L63.476 80.2677L68.1529 80.2197L68.2008 80.2396L68.2207 80.2478L68.2382 80.2548L68.2909 80.2782C68.3949 80.3214 68.5551 80.3951 68.7585 80.4863C68.8965 80.5495 69.0555 80.6231 69.2332 80.7085L69.342 80.7611L69.5758 80.878C69.6577 80.9189 69.7442 80.961 69.8319 81.0066C69.9196 81.0522 69.9979 81.0908 70.0844 81.1352L70.1827 81.1855C70.351 81.2736 70.5276 81.3671 70.7123 81.4661L70.9462 81.5971C73.7161 83.1112 77.8423 85.8636 80.1246 89.6683Z" fill="#F4B545"/>
<path d="M70.9496 81.5912C65.8471 87.6712 61.5887 82.868 60.5154 81.4381C60.6487 81.3761 60.7843 81.3211 60.9211 81.2545C61.7084 80.9053 62.5588 80.5763 63.4724 80.2677L68.1493 80.2197C69.0224 80.5903 69.8763 81.0047 70.7075 81.4614C70.7882 81.507 70.8677 81.5515 70.9496 81.5912Z" fill="#FDC8AA"/>
<path d="M70.7125 81.4732C65.0628 84.747 61.7095 82.0321 60.9249 81.2662C61.7122 80.917 62.5626 80.588 63.4762 80.2794L68.1531 80.2314C69.0266 80.602 69.8809 81.0164 70.7125 81.4732Z" fill="#F4A882"/>
<path d="M75.2481 71.8882C75.2481 71.8882 79.8268 69.8584 78.1396 60.121C76.4524 50.3837 72.2584 51.2209 70.2134 52.8286C68.1684 54.4363 59.2005 53.2436 55.6612 56.5479C52.3687 59.6206 51.9513 73.5625 56.3967 74.029C60.8421 74.4955 75.2481 71.8882 75.2481 71.8882Z" fill="#1F3A6F"/>
<path d="M76.7502 70.2281C76.8181 76.7068 72.1084 82.0081 66.2272 82.0689C61.6672 82.1157 57.7526 78.9997 56.1894 74.5777C55.7231 73.2502 55.479 71.8549 55.4668 70.4479C55.413 65.2799 58.398 60.8603 62.5897 59.2537C63.6724 58.8378 64.8207 58.6184 65.9805 58.606C71.8652 58.5452 76.6836 63.7483 76.7502 70.2281Z" fill="#FDC8AA"/>
<path d="M63.1237 76.4237L70.1636 76.177C70.2212 76.1748 70.2785 76.1872 70.33 76.213C70.3816 76.2388 70.4258 76.2772 70.4586 76.3247C70.4913 76.3722 70.5116 76.4271 70.5175 76.4845C70.5233 76.5419 70.5146 76.5998 70.4922 76.6529C70.1344 77.4994 69.1277 79.1504 66.691 79.293C64.2111 79.438 63.1833 77.7426 62.8197 76.8996C62.798 76.8484 62.7891 76.7927 62.7938 76.7373C62.7985 76.6819 62.8166 76.6285 62.8465 76.5817C62.8764 76.5348 62.9173 76.496 62.9656 76.4685C63.0139 76.4409 63.0681 76.4256 63.1237 76.4237Z" fill="white"/>
<path d="M56.1894 74.581C55.7231 73.2535 55.479 71.8582 55.4668 70.4513C55.413 65.2833 58.398 60.8636 62.5897 59.2571C64.5774 59.2173 65.9442 59.1916 66.0331 59.1904C66.3733 59.1904 70.3674 62.9074 70.3674 62.9074C70.3674 62.9074 55.5404 63.2395 56.1894 74.581Z" fill="#F4A882"/>
<path d="M55.1556 68.2632C55.4199 68.3134 56.7633 66.0416 61.0743 63.6763C65.3852 61.3109 74.953 64.3252 76.7174 67.2681C78.4817 70.2111 76.9957 59.3349 76.9957 59.3349C76.9957 59.3349 75.1167 56.6059 74.3754 56.5077C73.6341 56.4095 68.2381 56.04 68.2381 56.04L61.9489 56.2634C61.9489 56.2634 58.8446 57.6173 58.6867 57.7249C58.5289 57.8325 55.3977 63.571 55.3977 63.571L55.1556 68.2632Z" fill="#1F3A6F"/>
<path d="M105.372 169.983L101.501 162.211C101.411 162.03 101.273 161.878 101.101 161.772C100.929 161.665 100.73 161.61 100.528 161.61C100.326 161.611 100.128 161.668 99.9571 161.776C99.7859 161.883 99.6481 162.036 99.5594 162.218L95.7453 170.016C95.6679 170.175 95.5528 170.312 95.4101 170.416C95.2674 170.52 95.1015 170.587 94.9269 170.612L86.3389 171.891C86.139 171.92 85.9513 172.006 85.7973 172.136C85.6432 172.267 85.5289 172.439 85.4672 172.631C85.4055 172.824 85.3989 173.03 85.4482 173.226C85.4975 173.422 85.6007 173.6 85.7461 173.74L91.9851 179.778C92.1112 179.901 92.2057 180.052 92.2604 180.218C92.3152 180.385 92.3287 180.563 92.2996 180.736L90.8615 189.298C90.8279 189.497 90.8507 189.702 90.9274 189.889C91.0042 190.076 91.1317 190.238 91.2956 190.356C91.4594 190.474 91.6532 190.544 91.8548 190.558C92.0564 190.572 92.2579 190.529 92.4364 190.435L100.108 186.367C100.263 186.285 100.436 186.242 100.612 186.242C100.787 186.242 100.96 186.285 101.116 186.367L108.815 190.38C108.994 190.473 109.196 190.514 109.397 190.499C109.599 190.484 109.792 190.413 109.955 190.293C110.118 190.174 110.244 190.011 110.32 189.824C110.395 189.636 110.417 189.432 110.382 189.233L108.884 180.68C108.854 180.507 108.866 180.329 108.919 180.162C108.973 179.995 109.066 179.844 109.191 179.721L115.388 173.641C115.533 173.5 115.634 173.321 115.682 173.124C115.73 172.928 115.722 172.722 115.659 172.53C115.596 172.338 115.481 172.168 115.326 172.038C115.171 171.908 114.983 171.824 114.783 171.796L106.189 170.567C106.015 170.543 105.851 170.477 105.708 170.376C105.566 170.274 105.45 170.139 105.372 169.983Z" fill="white"/>
<path d="M140.389 169.983L136.519 162.211C136.429 162.03 136.29 161.878 136.118 161.772C135.946 161.665 135.748 161.61 135.546 161.61C135.344 161.611 135.146 161.668 134.975 161.776C134.804 161.883 134.666 162.036 134.577 162.218L130.762 170.016C130.684 170.175 130.569 170.312 130.427 170.416C130.284 170.52 130.118 170.587 129.943 170.612L121.355 171.891C121.156 171.921 120.968 172.006 120.814 172.137C120.66 172.268 120.546 172.439 120.484 172.631C120.423 172.824 120.416 173.029 120.465 173.225C120.514 173.421 120.616 173.6 120.761 173.74L127 179.778C127.127 179.9 127.221 180.051 127.276 180.218C127.331 180.385 127.345 180.563 127.316 180.736L125.878 189.298C125.844 189.497 125.867 189.702 125.944 189.889C126.021 190.076 126.148 190.238 126.312 190.356C126.476 190.474 126.67 190.544 126.871 190.558C127.073 190.572 127.274 190.529 127.453 190.435L135.124 186.367C135.28 186.285 135.453 186.242 135.628 186.242C135.804 186.242 135.977 186.285 136.132 186.367L143.831 190.38C144.011 190.473 144.212 190.514 144.414 190.499C144.615 190.484 144.808 190.413 144.971 190.293C145.134 190.174 145.261 190.011 145.336 189.824C145.412 189.636 145.433 189.432 145.398 189.233L143.9 180.68C143.87 180.507 143.882 180.329 143.936 180.162C143.989 179.995 144.083 179.844 144.208 179.721L150.405 173.641C150.549 173.5 150.651 173.32 150.699 173.124C150.747 172.928 150.738 172.722 150.675 172.53C150.612 172.338 150.496 172.167 150.341 172.038C150.186 171.908 149.998 171.824 149.798 171.796L141.207 170.567C141.033 170.543 140.868 170.477 140.726 170.376C140.583 170.274 140.468 170.139 140.389 169.983Z" fill="white"/>
<path d="M175.405 169.983L171.535 162.211C171.444 162.03 171.306 161.878 171.134 161.772C170.962 161.665 170.763 161.61 170.561 161.61C170.359 161.611 170.161 161.668 169.99 161.776C169.819 161.883 169.681 162.036 169.592 162.218L165.777 170.016C165.7 170.174 165.586 170.311 165.445 170.415C165.303 170.518 165.138 170.586 164.965 170.612L156.377 171.891C156.177 171.921 155.989 172.006 155.835 172.137C155.682 172.268 155.567 172.439 155.506 172.631C155.444 172.824 155.437 173.029 155.486 173.225C155.535 173.421 155.638 173.6 155.783 173.74L162.022 179.778C162.148 179.9 162.243 180.051 162.297 180.218C162.352 180.385 162.365 180.563 162.336 180.736L160.899 189.298C160.866 189.497 160.888 189.702 160.965 189.889C161.042 190.076 161.169 190.238 161.333 190.356C161.497 190.474 161.691 190.544 161.893 190.558C162.094 190.572 162.296 190.529 162.474 190.435L170.145 186.367C170.301 186.285 170.474 186.242 170.649 186.242C170.825 186.242 170.998 186.285 171.153 186.367L178.853 190.38C179.032 190.473 179.234 190.514 179.435 190.499C179.636 190.484 179.83 190.413 179.993 190.293C180.156 190.174 180.282 190.011 180.357 189.824C180.433 189.636 180.454 189.432 180.419 189.233L178.921 180.68C178.89 180.507 178.903 180.329 178.956 180.162C179.01 179.995 179.104 179.844 179.229 179.721L185.426 173.641C185.57 173.5 185.672 173.32 185.72 173.124C185.768 172.928 185.76 172.722 185.696 172.53C185.633 172.338 185.518 172.167 185.363 172.038C185.208 171.908 185.019 171.824 184.819 171.796L176.222 170.567C176.049 170.543 175.884 170.477 175.741 170.376C175.599 170.274 175.483 170.139 175.405 169.983Z" fill="white"/>
<path d="M210.427 169.983L206.557 162.211C206.467 162.03 206.328 161.878 206.156 161.772C205.984 161.665 205.786 161.61 205.584 161.61C205.382 161.611 205.184 161.668 205.013 161.776C204.842 161.883 204.704 162.036 204.615 162.218L200.8 170.016C200.722 170.175 200.607 170.312 200.465 170.416C200.322 170.52 200.156 170.587 199.981 170.612L191.393 171.891C191.194 171.921 191.006 172.006 190.852 172.137C190.698 172.268 190.584 172.439 190.522 172.631C190.46 172.824 190.454 173.029 190.503 173.225C190.552 173.421 190.654 173.6 190.799 173.74L197.038 179.778C197.165 179.9 197.259 180.051 197.314 180.218C197.369 180.385 197.382 180.563 197.353 180.736L195.916 189.298C195.882 189.497 195.905 189.702 195.982 189.889C196.059 190.076 196.186 190.238 196.35 190.356C196.514 190.474 196.708 190.544 196.909 190.558C197.111 190.572 197.312 190.529 197.491 190.435L205.162 186.367C205.317 186.285 205.49 186.242 205.666 186.242C205.841 186.242 206.014 186.285 206.169 186.367L213.868 190.38C214.048 190.473 214.249 190.514 214.451 190.499C214.652 190.483 214.845 190.412 215.008 190.293C215.171 190.174 215.298 190.011 215.373 189.824C215.449 189.636 215.471 189.432 215.436 189.233L213.937 180.68C213.907 180.507 213.919 180.329 213.973 180.162C214.027 179.995 214.121 179.844 214.246 179.721L220.443 173.641C220.587 173.5 220.689 173.32 220.737 173.124C220.785 172.928 220.776 172.722 220.713 172.53C220.65 172.338 220.534 172.167 220.379 172.038C220.224 171.908 220.036 171.824 219.836 171.796L211.245 170.567C211.071 170.543 210.906 170.478 210.764 170.376C210.621 170.274 210.506 170.139 210.427 169.983Z" fill="white"/>
<path d="M245.448 169.983L241.577 162.211C241.488 162.03 241.349 161.878 241.177 161.772C241.005 161.666 240.807 161.61 240.605 161.61C240.403 161.611 240.205 161.668 240.034 161.776C239.863 161.883 239.725 162.036 239.637 162.218L235.821 170.017C235.744 170.175 235.629 170.312 235.486 170.416C235.343 170.52 235.178 170.587 235.003 170.612L226.416 171.891C226.216 171.921 226.028 172.006 225.874 172.136C225.72 172.267 225.605 172.439 225.544 172.631C225.482 172.824 225.475 173.03 225.524 173.226C225.574 173.422 225.677 173.6 225.822 173.741L232.061 179.779C232.187 179.901 232.282 180.052 232.337 180.219C232.392 180.385 232.405 180.563 232.376 180.736L230.939 189.298C230.905 189.498 230.928 189.702 231.005 189.889C231.081 190.076 231.209 190.238 231.373 190.356C231.537 190.475 231.73 190.545 231.932 190.559C232.134 190.573 232.335 190.53 232.514 190.435L240.184 186.367C240.339 186.285 240.512 186.243 240.688 186.243C240.863 186.243 241.036 186.285 241.192 186.367L248.891 190.38C249.07 190.473 249.272 190.515 249.473 190.499C249.675 190.484 249.868 190.413 250.031 190.293C250.194 190.174 250.32 190.012 250.396 189.824C250.471 189.637 250.493 189.432 250.458 189.233L248.96 180.68C248.93 180.507 248.942 180.33 248.996 180.163C249.05 179.996 249.143 179.844 249.269 179.721L255.466 173.641C255.61 173.5 255.712 173.321 255.759 173.124C255.807 172.928 255.799 172.722 255.736 172.53C255.673 172.338 255.557 172.168 255.402 172.038C255.247 171.908 255.059 171.825 254.859 171.796L246.265 170.567C246.092 170.543 245.927 170.478 245.784 170.376C245.642 170.274 245.526 170.139 245.448 169.983Z" fill="white"/>
<path d="M154.512 23.6512C161.043 23.6512 166.337 18.3567 166.337 11.8256C166.337 5.29449 161.043 0 154.512 0C147.981 0 142.686 5.29449 142.686 11.8256C142.686 18.3567 147.981 23.6512 154.512 23.6512Z" fill="#B7CAE5"/>
<path d="M47.8113 163.469C48.8408 158.967 46.0256 154.482 41.5234 153.453C37.0213 152.423 32.537 155.238 31.5075 159.741C30.478 164.243 33.2932 168.727 37.7954 169.757C42.2975 170.786 46.7818 167.971 47.8113 163.469Z" fill="#F4B545"/>
<path d="M138.47 300.366C141.154 300.366 143.33 298.189 143.33 295.505C143.33 292.821 141.154 290.645 138.47 290.645C135.785 290.645 133.609 292.821 133.609 295.505C133.609 298.189 135.785 300.366 138.47 300.366Z" fill="#F4B545"/>
<path d="M316.668 191.202C319.352 191.202 321.528 189.026 321.528 186.342C321.528 183.658 319.352 181.481 316.668 181.481C313.983 181.481 311.807 183.658 311.807 186.342C311.807 189.026 313.983 191.202 316.668 191.202Z" fill="#B7CAE5"/>
</svg>
