<svg width="66" height="66" viewBox="0 0 66 66" fill="none" xmlns="http://www.w3.org/2000/svg">
<path d="M5 33C5 17.536 17.536 5 33 5C48.464 5 61 17.536 61 33C61 48.464 48.464 61 33 61C17.536 61 5 48.464 5 33Z" fill="#D1E9FF"/>
<path d="M37.0833 27.7502L41.1667 23.6668M43.5 21.3335L41.1667 23.6668L43.5 21.3335ZM32.2883 32.5452C32.8907 33.1395 33.3696 33.8472 33.6974 34.6274C34.0252 35.4076 34.1954 36.245 34.1982 37.0912C34.201 37.9375 34.0365 38.776 33.7139 39.5583C33.3914 40.3407 32.9173 41.0516 32.3189 41.65C31.7205 42.2484 31.0096 42.7225 30.2272 43.0451C29.4448 43.3676 28.6063 43.5322 27.7601 43.5294C26.9138 43.5265 26.0765 43.3563 25.2963 43.0285C24.5161 42.7008 23.8084 42.2219 23.214 41.6195C22.0452 40.4093 21.3984 38.7884 21.413 37.106C21.4276 35.4236 22.1025 33.8142 23.2922 32.6245C24.4819 31.4348 26.0913 30.76 27.7737 30.7453C29.4561 30.7307 31.077 31.3775 32.2872 32.5463L32.2883 32.5452ZM32.2883 32.5452L37.0833 27.7502L32.2883 32.5452ZM37.0833 27.7502L40.5833 31.2502L44.6667 27.1668L41.1667 23.6668L37.0833 27.7502Z" stroke="#53B1FD" stroke-width="2.33333" stroke-linecap="round" stroke-linejoin="round"/>
<path d="M33 56C20.2975 56 10 45.7025 10 33H0C0 51.2254 14.7746 66 33 66V56ZM56 33C56 45.7025 45.7025 56 33 56V66C51.2254 66 66 51.2254 66 33H56ZM33 10C45.7025 10 56 20.2975 56 33H66C66 14.7746 51.2254 0 33 0V10ZM33 0C14.7746 0 0 14.7746 0 33H10C10 20.2975 20.2975 10 33 10V0Z" fill="#EFF8FF"/>
</svg>
